# xmcd
#
# Track frame offsets: 
#        150
#        10900
#        22402
#        36917
#        46435
#        60729
#        70699
#        82506
#        93710
#        104087
#        122156
#        131683
#
# Disc length: 1895 seconds
#
# Revision: 0
# Processed by: cddbd v1.5.1PL2 Copyright (c) Steve Scherf et al.
# Submitted via: ExactAudioCopy v0.95b3
#
DISCID=a607650c
DTITLE=Herb Alpert and The Tijuana Brass - This Guy´s  in Love with You
DYEAR=1900
DGENRE=Bluegrass
TTITLE0=Flamingo
TTITLE1=Miss frenchy Brown
TTITLE2=Zazueira
TTITLE3=The Continental
TTITLE4=I will Wait for You
TTITLE5=The Work Song
TTITLE6=Cabaret
TTITLE7=Mae
TTITLE8=Cinco de Mayo
TTITLE9=This Guy´s in Love with You
TTITLE10=Thanks for the Memory
TTITLE11=Lonely Bull
EXTD=
EXTT0=
EXTT1=
EXTT2=
EXTT3=
EXTT4=
EXTT5=
EXTT6=
EXTT7=
EXTT8=
EXTT9=
EXTT10=
EXTT11=
PLAYORDER=
